<?xml version="1.0" encoding="UTF-8" standalone="no"?>
<!-- Created with Inkscape (http://www.inkscape.org/) -->

<svg
   width="44.714584mm"
   height="44.714584mm"
   viewBox="0 0 44.714584 44.714584"
   version="1.1"
   id="svg5"
   xml:space="preserve"
   inkscape:version="1.2.2 (732a01da63, 2022-12-09)"
   sodipodi:docname="WaterMe.svg"
   inkscape:export-filename="WaterMe_350.png"
   inkscape:export-xdpi="200"
   inkscape:export-ydpi="200"
   xmlns:inkscape="http://www.inkscape.org/namespaces/inkscape"
   xmlns:sodipodi="http://sodipodi.sourceforge.net/DTD/sodipodi-0.dtd"
   xmlns:xlink="http://www.w3.org/1999/xlink"
   xmlns="http://www.w3.org/2000/svg"
   xmlns:svg="http://www.w3.org/2000/svg"><sodipodi:namedview
     id="namedview7"
     pagecolor="#505050"
     bordercolor="#eeeeee"
     borderopacity="1"
     inkscape:showpageshadow="0"
     inkscape:pageopacity="0"
     inkscape:pagecheckerboard="0"
     inkscape:deskcolor="#505050"
     inkscape:document-units="mm"
     showgrid="false"
     inkscape:zoom="2.3786088"
     inkscape:cx="124.8629"
     inkscape:cy="56.755865"
     inkscape:window-width="2560"
     inkscape:window-height="1406"
     inkscape:window-x="-11"
     inkscape:window-y="-11"
     inkscape:window-maximized="1"
     inkscape:current-layer="layer1" /><defs
     id="defs2"><linearGradient
       inkscape:collect="always"
       id="linearGradient2119"><stop
         style="stop-color:#2f726f;stop-opacity:1;"
         offset="0"
         id="stop2115" /><stop
         style="stop-color:#2f4b3c;stop-opacity:1;"
         offset="1"
         id="stop2117" /></linearGradient><linearGradient
       inkscape:collect="always"
       xlink:href="#linearGradient2119"
       id="linearGradient2121"
       x1="77.473862"
       y1="101.21703"
       x2="113.54135"
       y2="135.76286"
       gradientUnits="userSpaceOnUse" /><filter
       style="color-interpolation-filters:sRGB;"
       inkscape:label="Drop Shadow"
       id="filter1972"
       x="-0.16848096"
       y="-0.13579296"
       width="1.4195506"
       height="1.3381511"><feFlood
         flood-opacity="0.356863"
         flood-color="rgb(0,0,0)"
         result="flood"
         id="feFlood1962" /><feComposite
         in="flood"
         in2="SourceGraphic"
         operator="in"
         result="composite1"
         id="feComposite1964" /><feGaussianBlur
         in="composite1"
         stdDeviation="1.7"
         result="blur"
         id="feGaussianBlur1966" /><feOffset
         dx="2"
         dy="2"
         result="offset"
         id="feOffset1968" /><feComposite
         in="SourceGraphic"
         in2="offset"
         operator="over"
         result="composite2"
         id="feComposite1970" /></filter></defs><g
     inkscape:label="Layer 1"
     inkscape:groupmode="layer"
     id="layer1"
     transform="translate(-74.54525,-94.051605)"><circle
       style="fill:url(#linearGradient2121);fill-opacity:1;stroke:none;stroke-width:1;stroke-linecap:square;stroke-linejoin:round;paint-order:stroke fill markers;stroke-opacity:1;stroke-dasharray:none"
       id="path376"
       cx="96.902542"
       cy="116.4089"
       r="22.20055" /><path
       style="fill:#ffffff;stroke:none;stroke-width:0.264583;filter:url(#filter1972)"
       d="m 98.995893,130.68051 c 0.80036,-0.12885 2.305867,-0.65102 3.345557,-1.16037 1.30807,-0.64082 2.32682,-1.39833 3.30729,-2.45919 0.77932,-0.8432 1.74497,-2.20587 2.1459,-3.02815 0.40093,-0.82227 0.86842,-2.392 1.03885,-3.48829 0.24113,-1.55098 0.2372,-2.39061 -0.0177,-3.78419 -0.18016,-0.98502 -0.73387,-2.63852 -1.23052,-3.67445 -0.49664,-1.03592 -1.72375,-2.94092 -2.72691,-4.23333 -1.00315,-1.29241 -3.14094,-3.62976 -4.75065,-5.19411 -1.609707,-1.56435 -3.054927,-2.84427 -3.211587,-2.84427 -0.15666,0 -1.66763,1.33945 -3.357702,2.97656 -1.69007,1.63711 -3.81615,3.96684 -4.72463,5.17718 -0.90847,1.21034 -2.01347,2.93675 -2.45554,3.83646 -0.44208,0.89971 -0.92822,2.05256 -1.08033,2.56189 -0.1521,0.50932 -0.35054,1.46182 -0.44095,2.11666 -0.0904,0.65485 -0.0322,2.02406 0.12931,3.04271 0.16153,1.01865 0.64006,2.59724 1.06337,3.50799 0.42331,0.91074 1.39163,2.31354 2.15182,3.11733 0.91279,0.96514 2.01782,1.77113 3.25399,2.3734 1.02951,0.50158 2.645565,1.03379 3.591622,1.18015 1.477554,0.22858 2.726978,0.19178 3.96881,-0.024 1.303427,-0.22648 -7e-6,2e-5 0,2e-5 z m -1.98438,-2.90565 c -0.58208,0.0113 -1.659138,-0.13949 -2.39345,-0.33504 -0.734318,-0.19556 -1.350682,-0.35491 -1.956412,-0.68805 -0.001,-7.7e-4 -0.003,-0.002 -0.004,-0.002 -0.66626,-0.3672 -1.1477,-0.8193 -1.79322,-1.41431 -0.64687,-0.59626 -1.45387,-1.63221 -1.79333,-2.30211 -0.33946,-0.6699 -0.76701,-1.94327 -0.9501,-2.82972 -0.26635,-1.28955 -0.26689,-1.90607 -0.003,-3.08434 0.18139,-0.80991 0.67732,-2.16072 1.10236,-3.00174 0.42503,-0.84102 1.31026,-2.24349 1.96718,-3.11662 0.65692,-0.87312 2.15038,-2.56977 3.318802,-3.77031 1.16842,-1.20055 2.26505,-2.18281 2.43694,-2.18281 0.1719,0 1.20296,0.92273 2.29126,2.05052 1.088287,1.12778 2.641077,2.94382 3.450637,4.03563 0.80956,1.09181 1.8143,2.748 2.23275,3.68043 0.45787,1.02028 0.81123,2.3369 0.88739,3.30656 0.0954,1.21473 -0.0161,2.03444 -0.45335,3.33102 -0.31895,0.94589 -0.87555,2.10948 -1.23687,2.58576 -0.36133,0.47629 -0.97624,1.16869 -1.36647,1.53868 -0.39023,0.36998 -1.06669,0.86275 -1.50325,1.09504 -0.43657,0.23229 -1.329537,0.57104 -1.984377,0.75277 -0.65484,0.18174 -1.66687,0.33967 -2.24896,0.35095 -1.13e-4,0 0.805104,-0.0156 -3.4e-4,0 z m 0.36313,-1.56651 c 0.91979,-0.004 1.94408,-0.21159 2.679577,-0.54413 0.65484,-0.29608 1.59216,-0.91855 2.08292,-1.38326 0.49077,-0.46471 1.17421,-1.44024 1.51877,-2.16784 0.34456,-0.7276 0.62764,-1.63576 0.62906,-2.01812 0.001,-0.38237 -0.16946,-0.83799 -0.37973,-1.0125 -0.21027,-0.17451 -0.65352,-0.27839 -0.985,-0.23084 -0.45346,0.065 -0.721,0.41402 -1.0805,1.40938 -0.27409,0.75887 -0.90916,1.73449 -1.4895,2.28824 -0.779447,0.74373 -1.369857,1.03423 -2.572077,1.26552 -0.85822,0.1651 -1.73899,0.39831 -1.95727,0.51824 -0.21828,0.11993 -0.43648,0.41937 -0.48487,0.66542 -0.0484,0.24605 0.0555,0.62025 0.23083,0.83154 0.21087,0.25407 0.82304,0.38219 1.80779,0.37835 z"
       id="path322"
       sodipodi:nodetypes="sssssssssssssssssssssscsssssssssssssssssssssscsscscsscsccccs" /></g></svg>
